<?xml version="1.0" encoding="UTF-8"?>
<svg id="Layer_2" data-name="Layer 2" xmlns="http://www.w3.org/2000/svg" viewBox="0 0 420.11 559.34">
  <defs>
    <style>
      .cls-1 {
        fill: #134f2c;
      }

      .cls-2 {
        fill: #d6df24;
      }
    </style>
  </defs>
  <g id="Layer_1-2" data-name="Layer 1">
    <g>
      <path class="cls-1" d="M218.69,0h-17.26C90.35,0,0,90.36,0,201.42v156.5c0,111.06,90.35,201.42,201.42,201.42h17.26c111.07,0,201.42-90.36,201.42-201.42V201.42C420.11,90.36,329.76,0,218.69,0Zm161,357.92c0,88.77-72.22,161-161,161h-17.26c-88.79,0-161-72.23-161-161V201.42c0-88.77,72.22-161,161-161h17.26c88.79,0,161,72.23,161,161v156.5Z"/>
      <polygon class="cls-2" points="308.86 277.54 308.86 362.4 108.19 362.4 108.19 277.87 142.83 252.03 142.83 327.75 274.22 327.75 274.22 250.33 308.86 277.54"/>
      <polygon class="cls-2" points="338.8 257.01 317.4 284.25 308.86 277.54 274.22 250.33 211.32 200.93 142.83 252.03 108.19 277.87 99.3 284.51 78.58 256.75 211.86 157.29 338.8 257.01"/>
      <path class="cls-1" d="M272.84,438.14c0,9.57-7.75,17.32-17.32,17.32h-94c-9.57,0-17.32-7.75-17.32-17.32s7.75-17.32,17.32-17.32h94c9.57,0,17.32,7.77,17.32,17.32Z"/>
    </g>
  </g>
</svg>